<?xml version="1.0" encoding="UTF-8" standalone="no"?>
<!-- Created with Inkscape (http://www.inkscape.org/) -->

<svg
   xmlns:dc="http://purl.org/dc/elements/1.1/"
   xmlns:cc="http://creativecommons.org/ns#"
   xmlns:rdf="http://www.w3.org/1999/02/22-rdf-syntax-ns#"
   xmlns:svg="http://www.w3.org/2000/svg"
   xmlns="http://www.w3.org/2000/svg"
   xmlns:sodipodi="http://sodipodi.sourceforge.net/DTD/sodipodi-0.dtd"
   xmlns:inkscape="http://www.inkscape.org/namespaces/inkscape"
   width="64"
   height="64"
   viewBox="0 0 64.000001 64.000001"
   id="svg2"
   version="1.1"
   inkscape:version="0.91 r13725"
   sodipodi:docname="WLineEdit_INK.svg">
  <defs
     id="defs4" />
  <sodipodi:namedview
     id="base"
     pagecolor="#ffffff"
     bordercolor="#666666"
     borderopacity="1.0"
     inkscape:pageopacity="0.0"
     inkscape:pageshadow="2"
     inkscape:zoom="7.919596"
     inkscape:cx="31.283138"
     inkscape:cy="41.861931"
     inkscape:document-units="px"
     inkscape:current-layer="layer1"
     showgrid="false"
     units="px"
     inkscape:window-width="944"
     inkscape:window-height="1002"
     inkscape:window-x="0"
     inkscape:window-y="0"
     inkscape:window-maximized="0" />
  <metadata
     id="metadata7">
    <rdf:RDF>
      <cc:Work
         rdf:about="">
        <dc:format>image/svg+xml</dc:format>
        <dc:type
           rdf:resource="http://purl.org/dc/dcmitype/StillImage" />
        <dc:title />
      </cc:Work>
    </rdf:RDF>
  </metadata>
  <g
     inkscape:label="Capa 1"
     inkscape:groupmode="layer"
     id="layer1"
     transform="translate(0,-988.36216)">
    <path
       inkscape:connector-curvature="0"
       id="path4251"
       d="m 6.0515525,1042.5328 c -2.3467219,-2.3468 -2.3467219,-41.9274 0,-44.2742 2.4494824,-2.44961 50.5111615,-2.44961 52.9606295,0 2.346722,2.3468 2.346722,41.9274 0,44.2742 -2.449468,2.4494 -50.5111471,2.4494 -52.9606295,0 z"
       style="fill:#fcfefb"
       sodipodi:nodetypes="ccccc" />
    <path
       inkscape:connector-curvature="0"
       id="path4247"
       d="m 3.7301239,1040.5125 c -2.3467219,-2.3468 -2.3467219,-39.1495 0,-41.49629 2.4494824,-2.44961 54.0825901,-2.44961 56.5320581,0 2.346722,2.34679 2.346722,39.14949 0,41.49629 -2.449468,2.4494 -54.0825757,2.4494 -56.5320581,0 z m 55.1309831,-1.4011 c 1.144801,-1.1449 1.68129,-5.8148 1.68129,-18.9467 0,-17.633 -0.232198,-18.6521 -2.710045,-19.9784 -3.792243,-2.02957 -47.8801566,-2.02957 -51.6723982,0 -2.4778475,1.3263 -2.7100448,2.3454 -2.7100448,19.9784 0,13.1319 0.5364734,17.8018 1.6812898,18.9467 2.4494672,2.4494 51.2804552,2.4494 53.7299082,0 z"
       style="fill:#cccccc"
       sodipodi:nodetypes="ccccccsccscc" />
    <path
       inkscape:connector-curvature="0"
       id="path3338"
       style="font-style:normal;font-weight:normal;font-size:medium;line-height:125%;font-family:sans-serif;letter-spacing:0px;word-spacing:0px;fill:#999999;fill-opacity:1;stroke:none;stroke-width:1px;stroke-linecap:butt;stroke-linejoin:miter;stroke-opacity:1"
       d="m 33.447622,1034.6844 -4.121094,0 -2.851563,-8.1054 -12.578125,0 -2.851562,8.1054 -3.9257866,0 10.5859426,-29.082 5.15625,0 10.585938,29.082 z m -8.164063,-11.4257 -5.097656,-14.2774 -5.117188,14.2774 10.214844,0 z" />
    <path
       style="font-style:normal;font-weight:normal;font-size:medium;line-height:125%;font-family:sans-serif;letter-spacing:0px;word-spacing:0px;fill:#cccccc;fill-opacity:1;stroke:none;stroke-width:1px;stroke-linecap:butt;stroke-linejoin:miter;stroke-opacity:1"
       sodipodi:nodetypes="ccccccccccccc"
       inkscape:connector-curvature="0"
       id="path3340"
       d="m 45.49059,1037.4401 -9.698661,0 0,-2.1957 3.588553,0 -0.714286,-30.5329 -3.588553,0 0,-2.1959 9.698661,0 0,2.1959 -3.40998,0 0.714286,30.5329 3.40998,0 z" />
  </g>
</svg>
